<svg width="150" height="34" viewBox="0 0 150 34" fill="none" xmlns="http://www.w3.org/2000/svg">
<g clip-path="url(#clip0_9479_3162)">
<mask id="mask0_9479_3162" style="mask-type:luminance" maskUnits="userSpaceOnUse" x="0" y="0" width="150" height="34">
<path d="M150 0H0V34H150V0Z" fill="white"/>
</mask>
<g mask="url(#mask0_9479_3162)">
<path d="M28.0899 28.3333H33.7078L26.7977 19.04C25.8989 17.8311 25.8989 16.1689 26.7977 14.96L33.7078 5.66666H28.0899L22.191 13.6C20.6928 15.6148 20.6928 18.3851 22.191 20.4L28.0899 28.3333Z" fill="#5958F6"/>
<path d="M15.7861 5.66666H19.1569V28.3333H15.7861L17.2215 18.6812C17.3873 17.5666 17.3873 16.4334 17.2215 15.3188L15.7861 5.66666Z" fill="white"/>
<path d="M15.7861 5.66666H19.1569V28.3333H15.7861L17.2215 18.6812C17.3873 17.5666 17.3873 16.4334 17.2215 15.3188L15.7861 5.66666Z" fill="#9B9BFA"/>
<path d="M8.98828 2.83334H12.9209L15.5764 15.0084C15.8631 16.3231 15.889 17.6821 15.6526 19.007L13.4827 31.1667H8.98828L12.4269 19.6053C12.9323 17.9058 12.9323 16.0942 12.4269 14.3947L8.98828 2.83334Z" fill="white"/>
<path d="M8.98828 2.83334H12.9209L15.5764 15.0084C15.8631 16.3231 15.889 17.6821 15.6526 19.007L13.4827 31.1667H8.98828L12.4269 19.6053C12.9323 17.9058 12.9323 16.0942 12.4269 14.3947L8.98828 2.83334Z" fill="#7A79F8"/>
<path d="M0 0H5.61798L10.4069 14.4913C10.9451 16.1197 10.9451 17.8803 10.4069 19.5087L5.61798 34H0L5.14423 18.4336C5.45175 17.503 5.45174 16.497 5.14423 15.5664L0 0Z" fill="#5958F6"/>
<path d="M88.0449 28.33H92.6803V11.5697L101.551 27.0173C101.907 27.6232 102.385 28.0607 102.985 28.33C103.585 28.6217 104.242 28.7676 104.953 28.7676C105.531 28.7676 106.076 28.6329 106.587 28.3636C107.121 28.0944 107.543 27.7017 107.854 27.1856C108.188 26.647 108.354 25.9963 108.354 25.2334V5.67748H103.752V22.3387L94.8814 6.99016C94.5258 6.36184 94.059 5.9131 93.4809 5.64381C92.9028 5.35209 92.2466 5.20624 91.5135 5.20624C90.9129 5.20624 90.346 5.35209 89.8123 5.64381C89.2786 5.9131 88.8455 6.31696 88.5118 6.85552C88.2005 7.39408 88.0449 8.03362 88.0449 8.77408V28.33Z" fill="white"/>
<path d="M120.373 28.7677C118.372 28.7677 116.594 28.3525 115.037 27.5223C113.503 26.6696 112.38 25.4354 111.669 23.8198L115.737 21.7666C116.093 22.5744 116.66 23.1915 117.438 23.6178C118.239 24.0442 119.217 24.2573 120.373 24.2573C121.085 24.2573 121.707 24.1676 122.24 23.9881C122.796 23.7861 123.241 23.5056 123.575 23.1466C123.908 22.7651 124.075 22.3051 124.075 21.7666C124.075 21.1383 123.897 20.6671 123.541 20.3529C123.185 20.0163 122.696 19.7695 122.074 19.6124C121.452 19.4553 120.751 19.3095 119.973 19.1749C119.128 19.0178 118.239 18.8158 117.305 18.569C116.393 18.2997 115.526 17.9182 114.704 17.4246C113.903 16.9309 113.258 16.2689 112.77 15.4387C112.28 14.586 112.036 13.5313 112.036 12.2747C112.036 10.9284 112.391 9.73906 113.103 8.70688C113.814 7.6522 114.793 6.82198 116.037 6.2161C117.282 5.58781 118.672 5.27365 120.206 5.27365C122.074 5.27365 123.753 5.69998 125.242 6.5527C126.732 7.38298 127.832 8.6059 128.544 10.2215L124.475 12.2747C124.12 11.5342 123.563 10.9396 122.808 10.4908C122.074 10.042 121.14 9.8176 120.006 9.8176C119.406 9.8176 118.872 9.90736 118.405 10.0869C117.939 10.2664 117.572 10.5245 117.305 10.8611C117.038 11.1977 116.905 11.6015 116.905 12.0728C116.905 12.6786 117.094 13.1611 117.472 13.5201C117.85 13.8567 118.361 14.1148 119.005 14.2943C119.673 14.4738 120.407 14.6421 121.207 14.7992C122.052 14.9562 122.919 15.1694 123.808 15.4387C124.72 15.6855 125.553 16.0558 126.309 16.5494C127.087 17.0431 127.721 17.705 128.21 18.5353C128.699 19.3656 128.944 20.4314 128.944 21.7329C128.944 23.0793 128.555 24.291 127.777 25.3681C127.021 26.4227 125.998 27.253 124.708 27.8589C123.419 28.4647 121.974 28.7677 120.373 28.7677Z" fill="white"/>
<path d="M150 5.67755H131.925V10.2215H138.528V28.3301H143.397V10.2215H150V5.67755Z" fill="white"/>
<path fill-rule="evenodd" clip-rule="evenodd" d="M73.4532 28.7677C71.8082 28.7677 70.2739 28.476 68.8509 27.8925C67.4284 27.3091 66.1829 26.4901 65.1161 25.4354C64.0711 24.3583 63.2487 23.1017 62.6481 21.6656C62.07 20.2295 61.7812 18.6812 61.7812 17.0207C61.7812 15.3602 62.07 13.8118 62.6481 12.3757C63.2487 10.9396 64.0711 9.69418 65.1161 8.63956C66.1829 7.58488 67.4284 6.76588 68.8509 6.18244C70.2739 5.57659 71.8082 5.27365 73.4532 5.27365C75.1206 5.27365 76.6548 5.57659 78.0554 6.18244C79.4784 6.76588 80.7234 7.58488 81.7908 8.63956C82.8577 9.69418 83.6807 10.9396 84.2582 12.3757C84.8588 13.8118 85.1588 15.3602 85.1588 17.0207C85.1588 18.6812 84.8588 20.2295 84.2582 21.6656C83.6807 23.1017 82.8577 24.3583 81.7908 25.4354C80.7234 26.4901 79.4784 27.3091 78.0554 27.8925C76.6548 28.476 75.1206 28.7677 73.4532 28.7677ZM73.4532 24.1227C74.3869 24.1227 75.2543 23.9432 76.0543 23.5841C76.8773 23.2252 77.5886 22.7203 78.1891 22.0695C78.8116 21.4188 79.2897 20.6671 79.6228 19.8143C79.9565 18.9392 80.1234 18.008 80.1234 17.0207C80.1234 16.0109 79.9565 15.0797 79.6228 14.2269C79.2897 13.3743 78.8116 12.6225 78.1891 11.9718C77.5886 11.3211 76.8773 10.8162 76.0543 10.4571C75.2543 10.0981 74.3869 9.91858 73.4532 9.91858C72.5194 9.91858 71.6414 10.0981 70.8189 10.4571C70.0183 10.8162 69.3071 11.3211 68.6846 11.9718C68.0841 12.6225 67.6172 13.3743 67.2835 14.2269C66.9504 15.0797 66.7835 16.0109 66.7835 17.0207C66.7835 18.008 66.9504 18.9392 67.2835 19.8143C67.6172 20.6671 68.0841 21.4188 68.6846 22.0695C69.3071 22.7203 70.0183 23.2252 70.8189 23.5841C71.6414 23.9432 72.5194 24.1227 73.4532 24.1227Z" fill="white"/>
<path d="M56.8699 28.3301H62.839L56.2362 19.747C55.7915 19.1412 55.4468 18.6251 55.2022 18.1987C54.9799 17.7499 54.8688 17.3124 54.8688 16.886C54.8688 16.4597 54.9799 16.0221 55.2022 15.5734C55.4468 15.1246 55.7915 14.5972 56.2362 13.9913L62.639 5.67755H57.103L51.6672 12.645C51.1154 13.3733 50.7054 14.0914 50.4373 14.7992H47.5653V5.67755H42.6963V28.3301H47.5653V19.3095H50.4747C50.7611 19.9959 51.1586 20.7028 51.6672 21.43L56.8699 28.3301Z" fill="white"/>
</g>
</g>
<defs>
<clipPath id="clip0_9479_3162">
<rect width="150" height="34" fill="white"/>
</clipPath>
</defs>
</svg>
